<svg width="76" height="72" viewBox="0 0 76 72" fill="none" xmlns="http://www.w3.org/2000/svg">
<path d="M37.5866 58.4511C37.8408 58.2977 38.1591 58.2977 38.4133 58.4511L60.0668 71.5203C60.6726 71.8859 61.42 71.3428 61.2592 70.6536L55.513 46.0219C55.4455 45.7327 55.5438 45.4299 55.7683 45.2355L74.9029 28.6591C75.4374 28.1961 75.1524 27.3181 74.4479 27.2574L49.2512 25.0846C48.9561 25.0592 48.6993 24.8728 48.5835 24.6002L38.7364 1.4015C38.4605 0.751612 37.5394 0.751611 37.2636 1.4015L27.4164 24.6002C27.3007 24.8728 27.0438 25.0592 26.7487 25.0846L1.54969 27.2576C0.845507 27.3183 0.560258 28.1955 1.09405 28.6588L20.1945 45.2359C20.4183 45.4302 20.5164 45.7322 20.4495 46.0208L14.7374 70.6565C14.5777 71.3454 15.3247 71.8875 15.9301 71.5221L37.5866 58.4511Z" fill="#E3E13D"/>
</svg>
