<svg width="155" height="24" viewBox="0 0 155 24" fill="none" xmlns="http://www.w3.org/2000/svg">
<path d="M0 16.7644C0.0834344 21.3282 4.05491 23.9958 10.0622 23.9958C16.4199 23.9958 20.2078 21.039 20.2078 16.3787C20.2078 12.7308 17.8716 10.7221 12.7321 9.77398L10.2624 9.32402C7.64259 8.84193 6.54125 8.16699 6.54125 6.94568C6.54125 5.57974 7.85952 4.61555 10.0789 4.61555C12.2982 4.61555 13.9335 5.61188 14.0337 7.28315H19.7239C19.6571 2.86394 16.0861 0.00349774 10.0288 0.00349774C4.48877 0.00349774 0.467232 2.88001 0.467232 7.34743C0.467232 10.8828 2.95358 13.1487 7.7594 14.0164L10.2291 14.4664C13.0825 14.9967 14.1171 15.6556 14.1171 16.9411C14.1171 18.3553 12.5652 19.3838 10.179 19.3838C7.82614 19.3838 5.9739 18.4196 5.69022 16.7644H0Z" fill="black"/>
<path d="M34.7421 23.5941V5.16193H41.3834V0.405245H21.9933V5.16193H28.6347V23.5941H34.7421Z" fill="black"/>
<path d="M74.9241 4.8566H78.4951C80.681 4.8566 82.0994 6.1904 82.0994 8.16699C82.0994 10.1757 80.7645 11.4452 78.5118 11.4452H74.9241V4.8566ZM74.9241 15.4788H78.0445L82.1829 23.5941H89.0579L84.2354 14.611C86.8719 13.5022 88.357 10.8989 88.357 8.0545C88.357 3.26568 85.1198 0.405245 79.1125 0.405245H68.8V23.5941H74.9241V15.4788Z" fill="black"/>
<path d="M117.859 23.5941V0.405245H110.784L104.71 15.5591H104.577L98.5026 0.405245H91.4274V23.5941H96.8172V9.11512H96.9507L102.891 23.5941H106.396L112.353 9.11512H112.47V23.5941H117.859Z" fill="black"/>
<path d="M130.943 0.426389H155L154.209 23.5941H130.943V0.426389Z" fill="black"/>
<path d="M54.3359 0.011128C47.0481 -0.252663 42.2901 4.18998 42.0412 11.5776C41.7923 18.9653 46.2237 23.7244 53.5281 23.9888C60.8158 24.2526 65.5566 19.8254 65.8055 12.4378C66.0544 5.05016 61.6236 0.274919 54.3359 0.011128ZM54.1746 4.79703C57.5934 4.92078 59.7339 7.79612 59.5851 12.2126C59.4368 16.6131 57.108 19.3267 53.6893 19.2029C50.2539 19.0786 48.13 16.2038 48.2783 11.8034C48.4271 7.38685 50.7559 4.67329 54.1746 4.79703Z" fill="black"/>
</svg>
